<?xml version="1.0" encoding="UTF-8" standalone="no"?>
<!-- Created with Inkscape (http://www.inkscape.org/) -->

<svg
   version="1.1"
   id="svg182"
   width="2328.6399"
   height="1178.24"
   viewBox="0 0 2328.6399 1178.24"
   sodipodi:docname="HPRC-Logo.svg"
   xml:space="preserve"
   inkscape:version="1.2.2 (732a01da63, 2022-12-09)"
   xmlns:inkscape="http://www.inkscape.org/namespaces/inkscape"
   xmlns:sodipodi="http://sodipodi.sourceforge.net/DTD/sodipodi-0.dtd"
   xmlns="http://www.w3.org/2000/svg"
   xmlns:svg="http://www.w3.org/2000/svg"><defs
     id="defs186" /><sodipodi:namedview
     id="namedview184"
     pagecolor="#ffffff"
     bordercolor="#000000"
     borderopacity="0.25"
     inkscape:showpageshadow="2"
     inkscape:pageopacity="0.0"
     inkscape:pagecheckerboard="0"
     inkscape:deskcolor="#d1d1d1"
     showgrid="false"
     inkscape:zoom="0.5"
     inkscape:cx="352"
     inkscape:cy="498"
     inkscape:window-width="1920"
     inkscape:window-height="1009"
     inkscape:window-x="-8"
     inkscape:window-y="-8"
     inkscape:window-maximized="1"
     inkscape:current-layer="g188" /><g
     inkscape:groupmode="layer"
     inkscape:label="Image"
     id="g188"><path
       id="path1110-1"
       style="fill:#af283a;fill-opacity:1;stroke-width:0.536166"
       d="m 470.21281,70.32509 c -44.16853,82.6981 -43.79294,148.503 -43.79294,148.503 l 0.0534,67.7892 C 218.92421,307.53319 56.829952,482.90468 56.829952,696.1929 c 0,227.3931 184.231948,411.722 411.506758,411.722 227.27479,0 411.50669,-184.3289 411.50669,-411.722 0,-212.16198 -160.379,-386.78291 -366.42719,-409.25401 v -73.0978 c -1.2328,-69.5586 -43.2034,-143.516 -43.2034,-143.516 z m -11.2566,56.6346 -2.5189,698.32251 -16.6168,0.9647 V 224.24459 c 0,0 -1.4477,-43.8153 19.1357,-97.2849 z m -32.48295,184.3811 0.4282,367.74491 -52.31593,89.7766 c -20.74418,26.6007 0,44.0315 0,44.0315 13.56144,11.4769 53.5492,32.1238 53.5492,32.1238 l 16.08078,30.4625 h 52.9053 l 15.1187,-30.7254 v 0.2629 c 0,0 39.9878,-20.6469 53.5492,-32.1239 0,0 20.7442,-17.4307 0,-44.0315 l -52.317,-89.7765 V 311.66229 c 192.11159,22.3639 341.23499,185.72283 341.23499,383.94091 0,38.7748 -5.7355,76.2092 -16.3488,111.498 -0.1608,0.2145 -2.8412,4.0764 -29.16,26.4403 -26.8549,22.7929 -74.2396,-1.8771 -74.2396,-1.8771 -53.6026,-20.6477 -89.19489,38.8821 -89.19489,38.8821 0,0 -28.5164,44.4053 -42.6675,61.8888 -14.0975,17.5371 -31.5721,25.8505 -31.5721,25.8505 -69.3102,25.3672 -77.4579,-56.5267 -77.4579,-56.5267 h -15.1155 -6.6469 -2.3054 -4.1803 -17.5287 c 0,0 -8.1473,81.8939 -77.56255,56.5267 0,0 -17.42107,-8.3134 -31.57215,-25.8505 -14.15105,-17.5372 -42.66744,-61.8888 -42.66744,-61.8888 0,0 -35.5924,-59.5298 -89.19494,-38.8821 0,0 -47.33113,24.67 -74.23961,1.8771 -19.0825,-16.1964 -31.03549,-27.1377 -36.556548,-32.2862 -9.54125,-33.5726 -14.63392,-69.0225 -14.63392,-105.6521 0,-199.34433 150.838108,-363.45381 344.611308,-384.26241 z m -14.52609,412.84791 1.17884,101.2537 c 0,0 -25.67544,-14.8548 -29.80284,-18.7162 -4.12739,-3.8613 -14.0981,-10.8876 -1.71591,-30.6772 z m 25.94284,118.0405 h 27.0693 l 0.4826,23.3827 h -15.0621 z" /></g><style
     type="text/css"
     id="style2">
	.st0{fill:#AF283A;}
</style><style
     type="text/css"
     id="style3119">
	.st0{fill:#AF283A;}
</style></svg>
